<?xml version="1.0" standalone="no"?>
<!DOCTYPE svg PUBLIC "-//W3C//DTD SVG 20010904//EN"
 "http://www.w3.org/TR/2001/REC-SVG-20010904/DTD/svg10.dtd">
<svg version="1.0" xmlns="http://www.w3.org/2000/svg"
 width="512.000000pt" height="512.000000pt" viewBox="0 0 512.000000 512.000000"
 preserveAspectRatio="xMidYMid meet">
<metadata>
Created by potrace 1.11, written by Peter Selinger 2001-2013
</metadata>
<g transform="translate(0.000000,512.000000) scale(0.100000,-0.100000)"
fill="#000000" stroke="none">
<path d="M220 5111 c-83 -26 -150 -82 -191 -161 l-24 -45 0 -2345 0 -2345 24
-45 c32 -61 76 -107 136 -138 l50 -27 2345 0 2345 0 50 27 c60 31 104 77 136
138 l24 45 0 2345 0 2345 -27 50 c-31 60 -77 104 -138 136 l-45 24 -2330 2
c-1282 1 -2341 -2 -2355 -6z m2534 -890 c134 -28 215 -55 316 -107 277 -142
430 -395 447 -739 22 -451 -186 -777 -603 -945 l-82 -33 95 -146 c215 -330
402 -598 655 -936 l149 -200 130 -69 129 -69 0 -58 0 -59 -294 0 -294 0 -91
68 c-73 54 -108 90 -182 187 -233 305 -442 660 -635 1078 l-68 147 -228 0
-228 0 0 -615 0 -615 28 -6 c109 -25 239 -59 305 -81 l77 -26 0 -68 0 -69
-630 0 -630 0 0 69 0 69 70 26 c60 22 171 52 293 80 l27 6 0 1423 0 1422 -108
26 c-59 15 -146 41 -194 59 l-88 32 0 67 0 68 353 7 c193 4 422 14 507 21 234
20 645 13 774 -14z"/>
<path d="M2060 3993 c-14 -2 -40 -6 -58 -9 l-32 -5 2 -717 3 -717 140 -3 c380
-8 556 42 714 200 149 148 221 367 208 622 -7 132 -25 205 -73 305 -81 164
-264 283 -496 321 -59 9 -353 12 -408 3z"/>
</g>
</svg>
